<svg width="200" height="48" viewBox="0 0 200 48" fill="none" xmlns="http://www.w3.org/2000/svg">
  <!-- Logo Icon -->
  <rect x="4" y="8" width="32" height="32" rx="6" fill="#3730a3"/>
  <path d="M14 20C14 18.8954 14.8954 18 16 18H18C19.1046 18 20 18.8954 20 20V28C20 29.1046 19.1046 30 18 30H16C14.8954 30 14 29.1046 14 28V20Z" fill="white"/>
  <path d="M22 22C22 20.8954 22.8954 20 24 20H26C27.1046 20 28 20.8954 28 22V28C28 29.1046 27.1046 30 26 30H24C22.8954 30 22 29.1046 22 28V22Z" fill="white" opacity="0.7"/>
  <circle cx="17" cy="15" r="1.5" fill="white"/>
  <circle cx="25" cy="17" r="1.5" fill="white" opacity="0.7"/>
  
  <!-- Text -->
  <text x="48" y="32" font-family="-apple-system, BlinkMacSystemFont, 'Segoe UI', Roboto, sans-serif" font-size="24" font-weight="700" fill="#18181b" letter-spacing="-0.02em">
    StudyFlow
  </text>
</svg>
